<svg width="186" height="61" viewBox="0 0 186 61" fill="none" xmlns="http://www.w3.org/2000/svg">
<path d="M17.9217 1.96955L14.5008 4.53522C17.4655 6.81581 18.2068 13.2775 18.2068 16.2233C15.3561 13.3725 14.5008 13.0874 11.08 12.5173C7.65919 11.9471 3.38293 14.2277 1.95756 17.6486C0.532194 21.0695 -0.037954 25.9158 5.37845 32.4725C9.71157 37.7178 17.2565 42.4501 20.4874 44.1605C26.4739 41.3098 33.8858 34.1829 36.7366 31.0471C39.5873 27.9113 41.8679 20.7844 38.447 16.5083C35.0261 12.2322 31.3202 12.2322 29.0396 12.5173C27.2151 12.7453 24.0983 15.083 22.768 16.2233C22.996 9.38148 19.6321 3.87005 17.9217 1.96955Z" fill="#95C438"/>
<path d="M24.4785 11.0919C24.2884 7.29093 26.0749 -0.139993 34.7411 0.544185C35.1212 4.0601 33.6008 11.0919 24.4785 11.0919Z" fill="#95C438"/>
<path d="M64.42 23.2239C64.42 25.0488 64.258 26.8481 63.9339 28.6218C63.6099 30.3784 63.0727 32.0242 62.3223 33.5592C61.5889 35.0941 60.6168 36.4926 59.4059 37.7547C58.195 38.9997 56.7112 40.023 54.9545 40.8246C54.5111 41.0292 54.0251 41.2168 53.4964 41.3874C52.9847 41.5579 52.4475 41.7029 51.8847 41.8223C51.3389 41.9417 50.7932 42.0355 50.2474 42.1037C49.7016 42.1719 49.19 42.206 48.7125 42.206C48.5249 42.206 48.3117 42.1975 48.0729 42.1804C47.8512 42.1804 47.638 42.1463 47.4333 42.0781C47.2287 42.0269 47.0581 41.9331 46.9217 41.7967C46.7853 41.6603 46.717 41.4726 46.717 41.2339C46.717 41.0292 46.7597 40.816 46.845 40.5943C46.9302 40.3726 47.0411 40.1594 47.1775 39.9548C47.331 39.7501 47.493 39.571 47.6636 39.4175C47.8341 39.247 48.0132 39.1191 48.2008 39.0338C48.1155 38.8974 48.0303 38.5136 47.945 37.8826C47.8768 37.2516 47.8086 36.45 47.7403 35.4779C47.6892 34.5057 47.638 33.4227 47.5868 32.2289C47.5357 31.018 47.4845 29.773 47.4333 28.4939C47.3992 27.2148 47.3651 25.9442 47.331 24.6821C47.314 23.403 47.2969 22.2262 47.2799 21.1518C47.2628 20.0773 47.2457 19.1478 47.2287 18.3633C47.2287 17.5617 47.2287 16.9818 47.2287 16.6237C47.2287 15.0205 47.2543 13.4429 47.3054 11.891C47.3566 10.339 47.3822 8.76138 47.3822 7.15823C47.1946 7.15823 47.0155 7.10706 46.845 7.00473C46.6915 6.9024 46.6147 6.74891 46.6147 6.54425C46.6147 6.27137 46.6829 6.02408 46.8194 5.80236C46.9558 5.56359 47.1264 5.35894 47.331 5.18839C47.5527 5.01784 47.7915 4.88993 48.0473 4.80465C48.3202 4.70232 48.576 4.65116 48.8148 4.65116C49.0536 4.65116 49.2838 4.67674 49.5055 4.72791C49.7272 4.76201 49.9575 4.80465 50.1962 4.85582C52.4645 5.40157 54.4855 6.22873 56.2592 7.3373C58.033 8.44587 59.5167 9.79321 60.7106 11.3793C61.9215 12.9654 62.8424 14.7562 63.4735 16.7516C64.1045 18.747 64.42 20.9045 64.42 23.2239ZM60.6338 22.7634C60.6338 21.058 60.4292 19.4548 60.0198 17.954C59.6105 16.4361 58.9966 15.0546 58.1779 13.8096C57.3763 12.5476 56.3616 11.439 55.1336 10.4839C53.9227 9.5118 52.5157 8.71022 50.9125 8.07919V8.18152C50.9125 12.5817 50.9808 16.9477 51.1172 21.2797C51.2707 25.5946 51.4924 29.9435 51.7823 34.3267C51.8335 34.9918 51.8761 35.6569 51.9103 36.3221C51.9614 36.9702 52.0382 37.6182 52.1405 38.2663C53.7437 37.7376 55.091 36.919 56.1825 35.8104C57.274 34.7019 58.1438 33.4398 58.7919 32.0242C59.457 30.5916 59.926 29.0737 60.1989 27.4706C60.4889 25.8504 60.6338 24.2813 60.6338 22.7634Z" fill="#95C438"/>
<path d="M69.3574 20.0261C69.3574 20.3161 69.2892 20.5293 69.1527 20.6657C69.0334 20.7851 68.8031 20.8448 68.462 20.8448C68.3085 20.8448 68.0698 20.8277 67.7457 20.7936C67.4217 20.7424 67.0891 20.6742 66.748 20.5889C66.424 20.5037 66.134 20.3843 65.8782 20.2308C65.6394 20.0773 65.52 19.8897 65.52 19.668C65.52 19.5998 65.5456 19.4122 65.5968 19.1052C65.648 18.7811 65.7077 18.44 65.7759 18.0819C65.8611 17.7237 65.9294 17.3997 65.9805 17.1097C66.0487 16.8198 66.0999 16.6578 66.134 16.6237V16.6493C66.2193 16.5128 66.3216 16.4276 66.441 16.3934C66.5604 16.3593 66.6798 16.3423 66.7992 16.3423C66.9527 16.3423 67.1488 16.3679 67.3876 16.419C67.6434 16.4531 67.8907 16.5128 68.1294 16.5981C68.3853 16.6663 68.6155 16.7601 68.8202 16.8795C69.0248 16.9989 69.1527 17.1268 69.2039 17.2632C69.2551 17.3997 69.2806 17.5873 69.2806 17.8261C69.2977 18.0478 69.2977 18.2524 69.2806 18.44C69.2806 18.5082 69.2721 18.5935 69.2551 18.6959C69.2551 18.7811 69.2551 18.8493 69.2551 18.9005C69.2551 18.9858 69.2551 19.0711 69.2551 19.1563C69.2721 19.2416 69.2892 19.3269 69.3062 19.4122C69.3233 19.4974 69.3318 19.5912 69.3318 19.6936C69.3489 19.7959 69.3574 19.9068 69.3574 20.0261ZM70.3039 40.4152C70.3039 40.8075 70.2101 41.0889 70.0225 41.2595C69.852 41.413 69.5706 41.4897 69.1783 41.4897C68.9737 41.4897 68.7434 41.4641 68.4876 41.413C68.2488 41.3618 68.0101 41.2936 67.7713 41.2083C67.5325 41.106 67.3108 40.9866 67.1062 40.8501C66.9015 40.7137 66.748 40.5602 66.6457 40.3897C66.5775 40.2873 66.5178 39.9718 66.4666 39.4431C66.4154 38.9144 66.3728 38.2578 66.3387 37.4733C66.3216 36.6888 66.296 35.8104 66.2619 34.8383C66.2449 33.8662 66.2278 32.8855 66.2108 31.8963C66.2108 30.9071 66.2108 29.9435 66.2108 29.0055C66.2108 28.0675 66.2108 27.2489 66.2108 26.5496V24.5798C66.2108 24.4092 66.2108 24.2387 66.2108 24.0681C66.2278 23.8976 66.2619 23.7526 66.3131 23.6332C66.3813 23.4968 66.4751 23.3859 66.5945 23.3007C66.7309 23.2154 66.9185 23.1728 67.1573 23.1728C67.9077 23.1728 68.4535 23.3859 68.7946 23.8123C69.1527 24.2216 69.3745 24.7759 69.4597 25.4752C69.545 26.5155 69.6047 27.5559 69.6388 28.5962C69.69 29.6195 69.7326 30.6599 69.7667 31.7173C69.8008 32.6723 69.8264 33.6189 69.8435 34.5569C69.8776 35.4779 69.9373 36.3988 70.0225 37.3198C70.0396 37.5074 70.0566 37.6865 70.0737 37.857C70.0908 38.0276 70.1163 38.1981 70.1504 38.3687C70.1846 38.7098 70.2187 39.0509 70.2528 39.392C70.2869 39.716 70.3039 40.0571 70.3039 40.4152Z" fill="#95C438"/>
<path d="M82.5067 36.8593C82.5067 37.3709 82.3617 37.8997 82.0718 38.4454C81.7989 38.9912 81.4408 39.4943 80.9974 39.9548C80.5539 40.3982 80.0423 40.7649 79.4624 41.0548C78.8996 41.3447 78.3368 41.4897 77.774 41.4897C76.9724 41.4897 76.2817 41.3362 75.7018 41.0292C75.1219 40.7052 74.6188 40.2788 74.1925 39.7501C73.7661 39.2043 73.4165 38.5904 73.1436 37.9082C72.8878 37.226 72.6831 36.5267 72.5296 35.8104C72.3761 35.0771 72.2653 34.3522 72.197 33.6359C72.1459 32.9026 72.1203 32.2374 72.1203 31.6405C72.1203 31.1289 72.1459 30.5234 72.197 29.8242C72.2653 29.1249 72.3676 28.4001 72.504 27.6497C72.6575 26.8993 72.8622 26.1574 73.118 25.424C73.3738 24.6906 73.6893 24.034 74.0645 23.4542C74.4568 22.8743 74.9173 22.4053 75.446 22.0471C75.9917 21.689 76.6142 21.5099 77.3135 21.5099C77.8593 21.5099 78.3453 21.6208 78.7717 21.8425C79.2151 22.0642 79.5818 22.3627 79.8717 22.7379C80.1787 23.096 80.409 23.5139 80.5625 23.9914C80.733 24.4689 80.8183 24.9635 80.8183 25.4752C80.8183 26.1403 80.6648 26.8651 80.3578 27.6497C80.0508 28.4342 79.65 29.1931 79.1554 29.9265C78.6779 30.6599 78.1321 31.325 77.5182 31.9219C76.9212 32.5018 76.3243 32.9452 75.7274 33.2522C75.7615 33.5592 75.8297 34.0111 75.9321 34.6081C76.0344 35.1879 76.1708 35.7678 76.3414 36.3477C76.529 36.9275 76.7422 37.4306 76.9809 37.857C77.2368 38.2834 77.5352 38.4966 77.8763 38.4966C78.0469 38.4966 78.1918 38.4454 78.3112 38.3431C78.4476 38.2407 78.567 38.1043 78.6694 37.9338C78.7717 37.7632 78.857 37.5756 78.9252 37.3709C79.0105 37.1663 79.0872 36.9702 79.1554 36.7826L79.3089 36.4244C79.343 36.3732 79.3601 36.3391 79.3601 36.3221C79.3771 36.305 79.3942 36.2794 79.4112 36.2453C79.5306 36.0236 79.6415 35.819 79.7438 35.6314C79.8632 35.4437 80.0252 35.2817 80.2299 35.1453H80.2043C80.2725 35.0771 80.3407 35.043 80.409 35.043C80.4942 35.0259 80.571 35.0174 80.6392 35.0174C80.8268 35.0174 81.0315 35.0771 81.2532 35.1965C81.4749 35.3158 81.6795 35.4693 81.8672 35.6569C82.0548 35.8275 82.2083 36.0236 82.3276 36.2453C82.447 36.45 82.5067 36.6546 82.5067 36.8593ZM77.4414 25.5775C77.4414 25.4069 77.4329 25.2279 77.4158 25.0403C77.3988 24.8527 77.3561 24.6906 77.2879 24.5542C77.0491 24.8441 76.836 25.1938 76.6484 25.6031C76.4778 25.9953 76.3328 26.4132 76.2135 26.8566C76.0941 27.283 75.9917 27.7179 75.9065 28.1613C75.8383 28.6047 75.7871 29.0141 75.753 29.3893C76.1964 28.8606 76.5887 28.2636 76.9298 27.5985C77.2709 26.9163 77.4414 26.2426 77.4414 25.5775Z" fill="#95C438"/>
<path d="M89.3628 40.9013C89.3628 41.0889 89.3201 41.2509 89.2349 41.3874C89.1496 41.5068 89.0387 41.6006 88.9023 41.6688C88.7829 41.737 88.6465 41.7796 88.493 41.7967C88.3565 41.8308 88.2201 41.8479 88.0837 41.8479C87.8961 41.8479 87.6743 41.8223 87.4185 41.7711C87.1797 41.737 86.941 41.6773 86.7022 41.592C86.4634 41.5068 86.2417 41.4044 86.0371 41.285C85.8495 41.1486 85.7045 40.9866 85.6022 40.799C85.4998 40.6284 85.406 40.3129 85.3208 39.8524C85.2525 39.3749 85.1929 38.8291 85.1417 38.2152C85.0905 37.5841 85.0479 36.919 85.0138 36.2197C84.9797 35.5034 84.9456 34.8212 84.9114 34.1732C84.8944 33.5251 84.8773 32.9452 84.8603 32.4336C84.8603 31.9049 84.8603 31.5126 84.8603 31.2568C84.8603 30.0629 84.8773 28.9117 84.9114 27.8032C84.9626 26.6775 85.0138 25.5263 85.0649 24.3495C84.9797 24.3495 84.8944 24.3581 84.8091 24.3751C84.7238 24.3922 84.6386 24.4007 84.5533 24.4007C84.3316 24.4348 84.1013 24.4604 83.8626 24.4775C83.6409 24.4945 83.4106 24.503 83.1719 24.503C82.8819 24.503 82.6261 24.4519 82.4044 24.3495C82.1827 24.2472 82.0718 24.017 82.0718 23.6588C82.0718 23.2325 82.1656 22.8914 82.3532 22.6355C82.5408 22.3797 82.7796 22.1836 83.0695 22.0471C83.3595 21.8936 83.675 21.7913 84.0161 21.7401C84.3572 21.6719 84.6897 21.6208 85.0138 21.5867C85.0649 21.5867 85.0991 21.5867 85.1161 21.5867C85.1332 21.5696 85.1673 21.5611 85.2184 21.5611C85.2355 21.3564 85.2525 21.1091 85.2696 20.8192C85.2867 20.5122 85.3037 20.1796 85.3208 19.8215C85.3378 19.2587 85.3634 18.6617 85.3975 18.0307C85.4316 17.3826 85.4657 16.7687 85.4998 16.1888C85.534 15.5919 85.5766 15.0717 85.6278 14.6283C85.6789 14.1678 85.7301 13.8437 85.7812 13.6561C85.8665 13.4344 85.9603 13.2553 86.0627 13.1189C86.182 12.9825 86.3952 12.9142 86.7022 12.9142C87.3844 12.9142 87.9131 13.136 88.2883 13.5794C88.6635 14.0228 88.8511 14.5686 88.8511 15.2167C88.8511 15.9671 88.8255 16.7175 88.7744 17.4679C88.7403 18.2183 88.7062 18.9773 88.6721 19.7447L88.5953 21.0494C89.0217 20.9983 89.448 20.9215 89.8744 20.8192C90.2837 20.7339 90.6931 20.6572 91.1024 20.5889C91.5287 20.5207 91.9381 20.4866 92.3303 20.4866C92.6714 20.4866 92.9358 20.5804 93.1234 20.768C93.311 20.9386 93.4048 21.1944 93.4048 21.5355C93.4048 21.9107 93.3366 22.2774 93.2001 22.6355C93.0637 22.9937 92.8249 23.2666 92.4838 23.4542H92.5094C92.4412 23.4883 92.2365 23.5394 91.8954 23.6077C91.5543 23.6588 91.1621 23.71 90.7186 23.7612C90.2923 23.8123 89.8659 23.8635 89.4395 23.9146C89.0302 23.9658 88.7232 23.9999 88.5186 24.017H88.493C88.4589 24.9721 88.4333 25.9186 88.4162 26.8566C88.3992 27.7776 88.3906 28.7156 88.3906 29.6707C88.3906 30.9839 88.4248 32.3824 88.493 33.8662C88.5782 35.3329 88.7147 36.7314 88.9023 38.0617L89.1069 39.2129C89.1752 39.5028 89.2349 39.7927 89.286 40.0827C89.3372 40.3556 89.3628 40.6284 89.3628 40.9013Z" fill="#95C438"/>
<path d="M122.262 41.4385C122.262 41.6432 122.159 41.8137 121.955 41.9502C121.75 42.0866 121.503 42.1975 121.213 42.2828C120.94 42.368 120.658 42.4277 120.369 42.4618C120.096 42.4959 119.891 42.513 119.755 42.513C119.413 42.513 119.132 42.4789 118.91 42.4107C118.706 42.3595 118.458 42.2572 118.168 42.1037C118.083 42.0525 117.879 41.8393 117.554 41.4641C117.248 41.0719 116.855 40.5687 116.378 39.9548C115.917 39.3408 115.389 38.6415 114.792 37.857C114.212 37.0725 113.606 36.2709 112.975 35.4523C112.361 34.6166 111.747 33.7894 111.133 32.9708C110.536 32.1351 109.982 31.3762 109.47 30.694C108.959 29.9947 108.515 29.3893 108.14 28.8776C107.782 28.3489 107.526 27.9822 107.373 27.7776L107.219 27.8287C107.322 29.8583 107.449 31.8878 107.603 33.9173C107.774 35.9298 108.055 37.9252 108.447 39.9036C108.498 40.1083 108.55 40.3214 108.601 40.5432C108.669 40.7649 108.703 40.9951 108.703 41.2339C108.703 41.6261 108.575 41.8734 108.319 41.9758C108.063 42.0952 107.782 42.1548 107.475 42.1548C107.305 42.1548 107.1 42.1463 106.861 42.1293C106.622 42.1122 106.375 42.0781 106.119 42.0269C105.863 41.9758 105.625 41.9075 105.403 41.8223C105.198 41.7541 105.036 41.6603 104.917 41.5409C104.678 41.3362 104.525 41.123 104.456 40.9013C104.405 40.6796 104.354 40.4152 104.303 40.1083C103.808 36.6802 103.493 33.2437 103.356 29.7986C103.237 26.3364 103.177 22.8828 103.177 19.4377C103.177 17.9369 103.186 16.4617 103.203 15.012C103.22 13.5623 103.245 12.0871 103.28 10.5863C103.075 10.5692 102.879 10.501 102.691 10.3816C102.521 10.2622 102.367 10.1172 102.231 9.9467C102.094 9.7591 101.983 9.57149 101.898 9.38389C101.83 9.17923 101.796 8.9831 101.796 8.79549C101.796 8.60789 101.838 8.42029 101.924 8.23268C102.026 8.04508 102.145 7.87453 102.282 7.72104C102.435 7.56754 102.597 7.42258 102.768 7.28614C102.938 7.1497 103.092 7.03884 103.228 6.95357V6.49309C103.228 6.32254 103.228 6.12641 103.228 5.90469C103.245 5.68298 103.28 5.47832 103.331 5.29072C103.399 5.08606 103.501 4.92404 103.638 4.80465C103.774 4.66821 103.979 4.59999 104.252 4.59999C104.61 4.59999 104.968 4.65969 105.326 4.77907C105.684 4.89845 105.991 5.11164 106.247 5.41863C107.526 4.90698 108.874 4.65116 110.289 4.65116C111.534 4.65116 112.668 4.89845 113.692 5.39305C114.715 5.88764 115.585 6.55278 116.301 7.38847C117.034 8.22416 117.597 9.18776 117.989 10.2793C118.382 11.3708 118.578 12.5135 118.578 13.7073C118.578 14.9864 118.339 16.2314 117.861 17.4423C117.384 18.6362 116.761 19.7703 115.994 20.8448C115.227 21.9192 114.348 22.9084 113.359 23.8123C112.387 24.6992 111.398 25.4752 110.391 26.1403C111.995 28.2722 113.615 30.387 115.252 32.4847C116.906 34.5654 118.595 36.6461 120.317 38.7268C120.42 38.8462 120.573 39.0253 120.778 39.264C121 39.5028 121.221 39.7672 121.443 40.0571C121.665 40.33 121.852 40.5943 122.006 40.8501C122.176 41.106 122.262 41.3021 122.262 41.4385ZM114.792 13.298C114.792 12.667 114.681 12.0103 114.459 11.3281C114.237 10.6459 113.922 10.032 113.512 9.48622C113.103 8.92341 112.609 8.46292 112.029 8.10477C111.466 7.74662 110.835 7.56754 110.136 7.56754C109.573 7.56754 109.01 7.65282 108.447 7.82337C107.901 7.97686 107.373 8.18152 106.861 8.43734C106.895 10.9785 106.921 13.5197 106.938 16.0609C106.972 18.6021 107.015 21.1432 107.066 23.6844L107.526 23.7356C108.413 23.241 109.283 22.6185 110.136 21.8681C111.005 21.1176 111.781 20.282 112.464 19.361C113.163 18.44 113.726 17.4679 114.152 16.4446C114.578 15.4043 114.792 14.3554 114.792 13.298Z" fill="#95C438"/>
<path d="M130.96 36.8593C130.96 37.3709 130.815 37.8997 130.525 38.4454C130.252 38.9912 129.894 39.4943 129.45 39.9548C129.007 40.3982 128.495 40.7649 127.915 41.0548C127.353 41.3447 126.79 41.4897 126.227 41.4897C125.425 41.4897 124.735 41.3362 124.155 41.0292C123.575 40.7052 123.072 40.2788 122.645 39.7501C122.219 39.2043 121.869 38.5904 121.596 37.9082C121.341 37.226 121.136 36.5267 120.983 35.8104C120.829 35.0771 120.718 34.3522 120.65 33.6359C120.599 32.9026 120.573 32.2374 120.573 31.6405C120.573 31.1289 120.599 30.5234 120.65 29.8242C120.718 29.1249 120.821 28.4001 120.957 27.6497C121.11 26.8993 121.315 26.1574 121.571 25.424C121.827 24.6906 122.142 24.034 122.517 23.4542C122.91 22.8743 123.37 22.4053 123.899 22.0471C124.445 21.689 125.067 21.5099 125.766 21.5099C126.312 21.5099 126.798 21.6208 127.225 21.8425C127.668 22.0642 128.035 22.3627 128.325 22.7379C128.632 23.096 128.862 23.5139 129.015 23.9914C129.186 24.4689 129.271 24.9635 129.271 25.4752C129.271 26.1403 129.118 26.8651 128.811 27.6497C128.504 28.4342 128.103 29.1931 127.608 29.9265C127.131 30.6599 126.585 31.325 125.971 31.9219C125.374 32.5018 124.777 32.9452 124.18 33.2522C124.214 33.5592 124.283 34.0111 124.385 34.6081C124.487 35.1879 124.624 35.7678 124.794 36.3477C124.982 36.9275 125.195 37.4306 125.434 37.857C125.69 38.2834 125.988 38.4966 126.329 38.4966C126.5 38.4966 126.645 38.4454 126.764 38.3431C126.901 38.2407 127.02 38.1043 127.122 37.9338C127.225 37.7632 127.31 37.5756 127.378 37.3709C127.463 37.1663 127.54 36.9702 127.608 36.7826L127.762 36.4244C127.796 36.3732 127.813 36.3391 127.813 36.3221C127.83 36.305 127.847 36.2794 127.864 36.2453C127.984 36.0236 128.094 35.819 128.197 35.6314C128.316 35.4437 128.478 35.2817 128.683 35.1453H128.657C128.725 35.0771 128.794 35.043 128.862 35.043C128.947 35.0259 129.024 35.0174 129.092 35.0174C129.28 35.0174 129.484 35.0771 129.706 35.1965C129.928 35.3158 130.132 35.4693 130.32 35.6569C130.508 35.8275 130.661 36.0236 130.781 36.2453C130.9 36.45 130.96 36.6546 130.96 36.8593ZM125.894 25.5775C125.894 25.4069 125.886 25.2279 125.869 25.0403C125.852 24.8527 125.809 24.6906 125.741 24.5542C125.502 24.8441 125.289 25.1938 125.101 25.6031C124.931 25.9953 124.786 26.4132 124.666 26.8566C124.547 27.283 124.445 27.7179 124.359 28.1613C124.291 28.6047 124.24 29.0141 124.206 29.3893C124.649 28.8606 125.042 28.2636 125.383 27.5985C125.724 26.9163 125.894 26.2426 125.894 25.5775Z" fill="#95C438"/>
<path d="M142.267 35.8104C142.267 36.1686 142.207 36.5353 142.088 36.9105C141.969 37.2857 141.832 37.6438 141.679 37.9849C141.474 38.4795 141.227 38.9656 140.937 39.4431C140.647 39.9036 140.314 40.3214 139.939 40.6967C139.564 41.0548 139.137 41.3447 138.66 41.5665C138.182 41.7882 137.645 41.899 137.048 41.899C135.991 41.899 135.112 41.6347 134.413 41.106C133.714 40.5773 133.16 39.9121 132.75 39.1105C132.341 38.309 132.051 37.4306 131.881 36.4756C131.727 35.5205 131.65 34.6166 131.65 33.7638C131.65 33.1328 131.676 32.3909 131.727 31.5382C131.778 30.6684 131.872 29.773 132.009 28.852C132.162 27.9311 132.375 27.0186 132.648 26.1147C132.938 25.2108 133.305 24.4092 133.748 23.71C134.192 22.9937 134.729 22.4138 135.36 21.9704C136.008 21.527 136.775 21.3053 137.662 21.3053C137.85 21.3053 138.123 21.3394 138.481 21.4076C138.839 21.4758 139.189 21.5781 139.53 21.7146C139.888 21.834 140.195 22.0045 140.451 22.2262C140.724 22.4309 140.86 22.6696 140.86 22.9425C140.86 23.1983 140.741 23.3945 140.502 23.5309C140.28 23.6674 140.007 23.7697 139.683 23.8379C139.376 23.8891 139.052 23.9232 138.711 23.9402C138.387 23.9402 138.123 23.9402 137.918 23.9402H137.458C136.98 24.3666 136.588 24.9976 136.281 25.8333C135.974 26.652 135.735 27.5303 135.564 28.4683C135.394 29.4063 135.275 30.3358 135.206 31.2568C135.138 32.1607 135.104 32.9026 135.104 33.4824C135.104 34.3011 135.164 35.1112 135.283 35.9128C135.419 36.6973 135.684 37.4392 136.076 38.1384C136.161 38.2919 136.281 38.471 136.434 38.6756C136.605 38.8633 136.792 38.9571 136.997 38.9571C137.151 38.9571 137.304 38.8291 137.458 38.5733C137.628 38.3175 137.782 38.019 137.918 37.6779C138.054 37.3368 138.165 37.0043 138.251 36.6802C138.336 36.3562 138.396 36.1174 138.43 35.9639C138.447 35.8957 138.455 35.819 138.455 35.7337C138.455 35.6484 138.455 35.5631 138.455 35.4779C138.455 35.3244 138.455 35.1794 138.455 35.043C138.472 34.8895 138.498 34.7701 138.532 34.6848C138.651 34.3949 138.805 34.1987 138.992 34.0964C139.197 33.9941 139.444 33.9429 139.734 33.9429C139.99 33.9429 140.263 33.977 140.553 34.0452C140.843 34.1135 141.116 34.2243 141.372 34.3778C141.627 34.5313 141.841 34.7274 142.011 34.9662C142.182 35.205 142.267 35.4864 142.267 35.8104Z" fill="#95C438"/>
<path d="M146.667 20.0261C146.667 20.3161 146.599 20.5293 146.463 20.6657C146.343 20.7851 146.113 20.8448 145.772 20.8448C145.618 20.8448 145.38 20.8277 145.055 20.7936C144.731 20.7424 144.399 20.6742 144.058 20.5889C143.734 20.5037 143.444 20.3843 143.188 20.2308C142.949 20.0773 142.83 19.8897 142.83 19.668C142.83 19.5998 142.855 19.4122 142.907 19.1052C142.958 18.7811 143.017 18.44 143.086 18.0819C143.171 17.7237 143.239 17.3997 143.29 17.1097C143.359 16.8198 143.41 16.6578 143.444 16.6237V16.6493C143.529 16.5128 143.631 16.4276 143.751 16.3934C143.87 16.3593 143.99 16.3423 144.109 16.3423C144.262 16.3423 144.459 16.3679 144.697 16.419C144.953 16.4531 145.2 16.5128 145.439 16.5981C145.695 16.6663 145.925 16.7601 146.13 16.8795C146.335 16.9989 146.463 17.1268 146.514 17.2632C146.565 17.3997 146.59 17.5873 146.59 17.8261C146.607 18.0478 146.607 18.2524 146.59 18.44C146.59 18.5082 146.582 18.5935 146.565 18.6959C146.565 18.7811 146.565 18.8493 146.565 18.9005C146.565 18.9858 146.565 19.0711 146.565 19.1563C146.582 19.2416 146.599 19.3269 146.616 19.4122C146.633 19.4974 146.642 19.5912 146.642 19.6936C146.659 19.7959 146.667 19.9068 146.667 20.0261ZM147.614 40.4152C147.614 40.8075 147.52 41.0889 147.332 41.2595C147.162 41.413 146.88 41.4897 146.488 41.4897C146.283 41.4897 146.053 41.4641 145.797 41.413C145.559 41.3618 145.32 41.2936 145.081 41.2083C144.842 41.106 144.621 40.9866 144.416 40.8501C144.211 40.7137 144.058 40.5602 143.955 40.3897C143.887 40.2873 143.828 39.9718 143.776 39.4431C143.725 38.9144 143.683 38.2578 143.648 37.4733C143.631 36.6888 143.606 35.8104 143.572 34.8383C143.555 33.8662 143.538 32.8855 143.521 31.8963C143.521 30.9071 143.521 29.9435 143.521 29.0055C143.521 28.0675 143.521 27.2489 143.521 26.5496V24.5798C143.521 24.4092 143.521 24.2387 143.521 24.0681C143.538 23.8976 143.572 23.7526 143.623 23.6332C143.691 23.4968 143.785 23.3859 143.904 23.3007C144.041 23.2154 144.228 23.1728 144.467 23.1728C145.218 23.1728 145.763 23.3859 146.104 23.8123C146.463 24.2216 146.684 24.7759 146.77 25.4752C146.855 26.5155 146.914 27.5559 146.949 28.5962C147 29.6195 147.042 30.6599 147.076 31.7173C147.111 32.6723 147.136 33.6189 147.153 34.5569C147.187 35.4779 147.247 36.3988 147.332 37.3198C147.349 37.5074 147.366 37.6865 147.383 37.857C147.401 38.0276 147.426 38.1981 147.46 38.3687C147.494 38.7098 147.528 39.0509 147.563 39.392C147.597 39.716 147.614 40.0571 147.614 40.4152Z" fill="#95C438"/>
<path d="M153.446 34.8895C153.446 35.7081 153.438 36.4585 153.421 37.1407C153.421 37.8229 153.438 38.5733 153.472 39.392L153.933 39.0594L154.214 38.8803C155.05 38.2152 155.774 37.4051 156.388 36.45C157.019 35.4779 157.54 34.446 157.949 33.3545C158.358 32.263 158.657 31.1459 158.844 30.0032C159.049 28.8435 159.151 27.7435 159.151 26.7031C159.151 26.4985 159.143 26.2171 159.126 25.8589C159.126 25.4837 159.092 25.117 159.023 24.7589C158.955 24.4007 158.853 24.0937 158.716 23.8379C158.58 23.565 158.384 23.4286 158.128 23.4286C157.719 23.4286 157.301 23.6759 156.875 24.1705C156.448 24.6651 156.047 25.2535 155.672 25.9357C155.314 26.6178 154.99 27.3086 154.7 28.0078C154.41 28.69 154.197 29.2272 154.06 29.6195C154.06 29.6366 154.052 29.6451 154.035 29.6451C154.035 29.6451 154.035 29.6536 154.035 29.6707V29.6963C153.933 29.935 153.822 30.1908 153.702 30.4637C153.6 30.7366 153.532 30.9924 153.498 31.2312C153.464 31.47 153.438 31.7428 153.421 32.0498C153.404 32.3398 153.395 32.6467 153.395 32.9708C153.395 33.1413 153.395 33.3119 153.395 33.4824C153.412 33.6359 153.421 33.7809 153.421 33.9173C153.421 34.1049 153.421 34.284 153.421 34.4546C153.438 34.6081 153.446 34.753 153.446 34.8895ZM154.854 58.2717C154.854 58.6469 154.751 58.9027 154.547 59.0392C154.342 59.1756 154.069 59.2438 153.728 59.2438C153.319 59.2438 152.867 59.1756 152.372 59.0392C151.877 58.9198 151.485 58.6896 151.195 58.3485C151.11 58.2291 151.025 57.8794 150.939 57.2996C150.871 56.7197 150.803 56.0375 150.735 55.253C150.667 54.4855 150.607 53.6839 150.556 52.8483C150.505 52.0296 150.453 51.3048 150.402 50.6738L150.3 49.3179C150.095 45.6681 149.993 42.0184 149.993 38.3687C149.993 36.2368 150.027 34.1476 150.095 32.101C150.18 30.0373 150.266 27.9481 150.351 25.8333L150.453 23.1472C150.453 22.8743 150.453 22.6099 150.453 22.3541C150.47 22.0812 150.505 21.8169 150.556 21.5611C150.641 21.3394 150.743 21.1688 150.863 21.0494C150.999 20.913 151.212 20.8448 151.502 20.8448C152.236 20.8448 152.773 21.0665 153.114 21.5099C153.455 21.9363 153.651 22.465 153.702 23.096C154.248 22.3456 154.896 21.7487 155.647 21.3053C156.414 20.8618 157.292 20.6401 158.282 20.6401C159.117 20.6401 159.816 20.8277 160.379 21.2029C160.959 21.5781 161.42 22.0642 161.761 22.6611C162.102 23.241 162.341 23.8976 162.477 24.631C162.631 25.3473 162.707 26.055 162.707 26.7543C162.707 28.1016 162.588 29.449 162.349 30.7963C162.11 32.1266 161.735 33.4227 161.224 34.6848C160.729 35.9298 160.098 37.1151 159.33 38.2407C158.563 39.3493 157.659 40.3385 156.619 41.2083C156.482 41.3277 156.32 41.4556 156.133 41.592C155.945 41.7285 155.749 41.8564 155.544 41.9758C155.34 42.0952 155.126 42.1975 154.905 42.2828C154.7 42.368 154.512 42.4107 154.342 42.4107C154.154 42.4107 153.992 42.368 153.856 42.2828C153.719 42.1975 153.6 42.0952 153.498 41.9758C153.532 43.1526 153.574 44.372 153.626 45.634C153.694 46.8961 153.771 48.1582 153.856 49.4202C153.941 50.6993 154.043 51.9614 154.163 53.2064C154.299 54.4514 154.461 55.6538 154.649 56.8135C154.7 57.0352 154.743 57.2655 154.777 57.5042C154.828 57.7601 154.854 58.0159 154.854 58.2717Z" fill="#95C438"/>
<path d="M174.143 36.8593C174.143 37.3709 173.998 37.8997 173.708 38.4454C173.435 38.9912 173.077 39.4943 172.633 39.9548C172.19 40.3982 171.678 40.7649 171.098 41.0548C170.535 41.3447 169.973 41.4897 169.41 41.4897C168.608 41.4897 167.918 41.3362 167.338 41.0292C166.758 40.7052 166.255 40.2788 165.828 39.7501C165.402 39.2043 165.052 38.5904 164.779 37.9082C164.524 37.226 164.319 36.5267 164.165 35.8104C164.012 35.0771 163.901 34.3522 163.833 33.6359C163.782 32.9026 163.756 32.2374 163.756 31.6405C163.756 31.1289 163.782 30.5234 163.833 29.8242C163.901 29.1249 164.003 28.4001 164.14 27.6497C164.293 26.8993 164.498 26.1574 164.754 25.424C165.01 24.6906 165.325 24.034 165.7 23.4542C166.093 22.8743 166.553 22.4053 167.082 22.0471C167.628 21.689 168.25 21.5099 168.949 21.5099C169.495 21.5099 169.981 21.6208 170.408 21.8425C170.851 22.0642 171.218 22.3627 171.508 22.7379C171.815 23.096 172.045 23.5139 172.198 23.9914C172.369 24.4689 172.454 24.9635 172.454 25.4752C172.454 26.1403 172.301 26.8651 171.994 27.6497C171.687 28.4342 171.286 29.1931 170.791 29.9265C170.314 30.6599 169.768 31.325 169.154 31.9219C168.557 32.5018 167.96 32.9452 167.363 33.2522C167.397 33.5592 167.466 34.0111 167.568 34.6081C167.67 35.1879 167.807 35.7678 167.977 36.3477C168.165 36.9275 168.378 37.4306 168.617 37.857C168.873 38.2834 169.171 38.4966 169.512 38.4966C169.683 38.4966 169.828 38.4454 169.947 38.3431C170.084 38.2407 170.203 38.1043 170.305 37.9338C170.408 37.7632 170.493 37.5756 170.561 37.3709C170.646 37.1663 170.723 36.9702 170.791 36.7826L170.945 36.4244C170.979 36.3732 170.996 36.3391 170.996 36.3221C171.013 36.305 171.03 36.2794 171.047 36.2453C171.167 36.0236 171.277 35.819 171.38 35.6314C171.499 35.4437 171.661 35.2817 171.866 35.1453H171.84C171.908 35.0771 171.977 35.043 172.045 35.043C172.13 35.0259 172.207 35.0174 172.275 35.0174C172.463 35.0174 172.667 35.0771 172.889 35.1965C173.111 35.3158 173.315 35.4693 173.503 35.6569C173.691 35.8275 173.844 36.0236 173.964 36.2453C174.083 36.45 174.143 36.6546 174.143 36.8593ZM169.077 25.5775C169.077 25.4069 169.069 25.2279 169.052 25.0403C169.035 24.8527 168.992 24.6906 168.924 24.5542C168.685 24.8441 168.472 25.1938 168.284 25.6031C168.114 25.9953 167.969 26.4132 167.849 26.8566C167.73 27.283 167.628 27.7179 167.542 28.1613C167.474 28.6047 167.423 29.0141 167.389 29.3893C167.832 28.8606 168.225 28.2636 168.566 27.5985C168.907 26.9163 169.077 26.2426 169.077 25.5775Z" fill="#95C438"/>
<path d="M183.992 22.789C183.992 22.9937 183.915 23.1642 183.762 23.3007C183.625 23.4371 183.455 23.5565 183.25 23.6588C183.045 23.7441 182.832 23.8038 182.61 23.8379C182.406 23.872 182.235 23.8891 182.099 23.8891C181.894 23.8891 181.698 23.872 181.51 23.8379C181.323 23.7867 181.135 23.7356 180.947 23.6844C180.76 23.6332 180.581 23.5906 180.41 23.5565C180.24 23.5053 180.061 23.4797 179.873 23.4797C179.617 23.4797 179.361 23.5224 179.106 23.6077C178.85 23.6929 178.619 23.8123 178.415 23.9658C178.21 24.1193 178.04 24.3069 177.903 24.5286C177.784 24.7503 177.724 24.9976 177.724 25.2705C177.724 25.6798 177.809 26.0891 177.98 26.4985C178.15 26.8907 178.372 27.2915 178.645 27.7008C178.935 28.1101 179.259 28.528 179.617 28.9544C179.992 29.3637 180.385 29.7815 180.794 30.2079C181.289 30.7537 181.783 31.3079 182.278 31.8707C182.789 32.4336 183.241 33.022 183.634 33.6359C184.043 34.2499 184.376 34.898 184.631 35.5802C184.887 36.2624 185.015 36.9787 185.015 37.7291C185.015 38.3772 184.904 38.9571 184.683 39.4687C184.478 39.9803 184.179 40.4152 183.787 40.7734C183.412 41.1316 182.951 41.4044 182.406 41.592C181.877 41.7967 181.297 41.899 180.666 41.899C180.496 41.899 180.231 41.8649 179.873 41.7967C179.532 41.7285 179.14 41.6347 178.696 41.5153C178.253 41.3788 177.792 41.2339 177.315 41.0804C176.854 40.9269 176.428 40.7649 176.036 40.5943C175.66 40.4067 175.345 40.2276 175.089 40.0571C174.85 39.8695 174.731 39.6989 174.731 39.5454C174.731 39.3408 174.825 39.1361 175.012 38.9315C175.2 38.7098 175.422 38.5136 175.678 38.3431C175.933 38.1555 176.198 38.002 176.471 37.8826C176.761 37.7632 176.999 37.7035 177.187 37.7035C177.443 37.7035 177.707 37.7632 177.98 37.8826C178.27 38.002 178.56 38.1384 178.85 38.2919C179.174 38.4625 179.498 38.616 179.822 38.7524C180.163 38.8888 180.513 38.9571 180.871 38.9571C181.144 38.9571 181.297 38.8633 181.331 38.6756C181.382 38.488 181.408 38.2749 181.408 38.0361C181.408 37.4392 181.306 36.8764 181.101 36.3477C180.896 35.8019 180.632 35.2732 180.308 34.7616C179.984 34.2499 179.609 33.7553 179.182 33.2778C178.756 32.7832 178.33 32.2971 177.903 31.8196C177.46 31.342 177.025 30.8645 176.598 30.387C176.189 29.9094 175.822 29.4234 175.498 28.9288C175.174 28.4171 174.91 27.897 174.705 27.3683C174.518 26.8396 174.424 26.2767 174.424 25.6798C174.424 24.9465 174.586 24.2899 174.91 23.71C175.234 23.1131 175.652 22.6014 176.164 22.175C176.692 21.7487 177.281 21.4246 177.929 21.2029C178.594 20.9642 179.259 20.8448 179.924 20.8448C180.146 20.8448 180.487 20.8959 180.947 20.9983C181.408 21.0835 181.86 21.2114 182.303 21.382C182.747 21.5525 183.139 21.7572 183.48 21.996C183.821 22.2347 183.992 22.4991 183.992 22.789Z" fill="#95C438"/>
<path d="M56.6463 57.2586C56.5252 57.2586 56.4181 57.2307 56.3249 57.1748C56.2318 57.1189 56.1852 57.0304 56.1852 56.9094V47.4088C56.1852 47.2878 56.2271 47.1993 56.311 47.1434C56.4041 47.0782 56.5019 47.0456 56.6044 47.0456H61.5502C61.6713 47.0456 61.7598 47.0922 61.8157 47.1853C61.8716 47.2691 61.8995 47.3623 61.8995 47.4647C61.8995 47.5765 61.8669 47.6789 61.8017 47.7721C61.7458 47.8559 61.662 47.8978 61.5502 47.8978H57.1073V51.74H59.3148C59.4173 51.74 59.4964 51.7819 59.5523 51.8657C59.6175 51.9495 59.6501 52.0473 59.6501 52.1591C59.6501 52.2522 59.6222 52.3407 59.5663 52.4246C59.5197 52.5084 59.4359 52.5503 59.3148 52.5503H57.1073V56.9094C57.1073 57.0304 57.0561 57.1189 56.9536 57.1748C56.8605 57.2307 56.758 57.2586 56.6463 57.2586Z" fill="#95C438"/>
<path d="M63.7138 57.3564C63.2388 57.3564 62.801 57.2354 62.4005 56.9932C62 56.7417 61.674 56.4157 61.4225 56.0152C61.1803 55.6054 61.0593 55.1676 61.0593 54.7019V53.193C61.0593 52.718 61.1757 52.2848 61.4085 51.8936C61.6507 51.4931 61.9721 51.1718 62.3726 50.9296C62.7824 50.6874 63.2295 50.5664 63.7138 50.5664C64.1888 50.5664 64.6266 50.6874 65.0271 50.9296C65.4369 51.1625 65.7629 51.4745 66.0051 51.8657C66.2473 52.2569 66.3684 52.6993 66.3684 53.193V54.7019C66.3684 55.1583 66.2473 55.5914 66.0051 56.0012C65.7629 56.4111 65.4369 56.7417 65.0271 56.9932C64.6266 57.2354 64.1888 57.3564 63.7138 57.3564ZM63.7138 56.5182C64.0398 56.5182 64.3332 56.4343 64.594 56.2667C64.8548 56.0897 65.0644 55.8615 65.2227 55.5821C65.3811 55.3027 65.4602 55.0093 65.4602 54.7019V53.193C65.4602 52.8856 65.3811 52.5969 65.2227 52.3268C65.0737 52.0566 64.8641 51.8378 64.594 51.6701C64.3332 51.4931 64.0398 51.4046 63.7138 51.4046C63.3878 51.4046 63.0944 51.4931 62.8336 51.6701C62.5728 51.8378 62.3632 52.0566 62.2049 52.3268C62.0466 52.5969 61.9674 52.8856 61.9674 53.193V54.7019C61.9674 55.0093 62.0466 55.3027 62.2049 55.5821C62.3632 55.8615 62.5728 56.0897 62.8336 56.2667C63.1037 56.4343 63.3971 56.5182 63.7138 56.5182Z" fill="#95C438"/>
<path d="M68.3069 57.2586C68.1858 57.2586 68.0787 57.2214 67.9856 57.1469C67.9017 57.0724 67.8598 56.9885 67.8598 56.8954V50.9995C67.8598 50.8877 67.9017 50.8039 67.9856 50.748C68.0787 50.6828 68.1858 50.6502 68.3069 50.6502C68.428 50.6502 68.5304 50.6828 68.6143 50.748C68.6981 50.8039 68.74 50.8877 68.74 50.9995V51.6841C68.8425 51.4885 68.9822 51.3068 69.1592 51.1392C69.3361 50.9715 69.5457 50.8365 69.7879 50.734C70.03 50.6223 70.3048 50.5664 70.6122 50.5664H71.1012C71.2036 50.5664 71.2875 50.6083 71.3527 50.6921C71.4272 50.7759 71.4644 50.8737 71.4644 50.9855C71.4644 51.1066 71.4272 51.209 71.3527 51.2929C71.2875 51.3674 71.2036 51.4046 71.1012 51.4046H70.6122C70.3048 51.4046 70.0067 51.4885 69.718 51.6561C69.4386 51.8238 69.2104 52.0566 69.0334 52.3547C68.8564 52.6528 68.768 53.016 68.768 53.4445V56.8954C68.768 56.9885 68.7214 57.0724 68.6282 57.1469C68.5444 57.2214 68.4373 57.2586 68.3069 57.2586Z" fill="#95C438"/>
<path d="M76.7354 57.3564C76.2045 57.3564 75.7528 57.2074 75.3802 56.9094C75.017 56.602 74.8353 56.1363 74.8353 55.5122C74.8353 54.9999 74.9704 54.6087 75.2405 54.3386C75.5199 54.0592 75.9018 53.8683 76.3862 53.7658C76.8798 53.654 77.448 53.5981 78.0907 53.5981H78.8032V53.2768C78.8032 52.9694 78.7473 52.6714 78.6356 52.3826C78.5331 52.0846 78.3608 51.8424 78.1186 51.6561C77.8858 51.4605 77.5644 51.3627 77.1546 51.3627C76.8472 51.3627 76.5957 51.3953 76.4001 51.4605C76.2045 51.5257 76.0509 51.5956 75.9391 51.6701C75.8273 51.7353 75.7342 51.7679 75.6597 51.7679C75.5479 51.7679 75.4547 51.712 75.3802 51.6002C75.315 51.4885 75.2824 51.386 75.2824 51.2929C75.2824 51.1625 75.3802 51.046 75.5758 50.9436C75.7714 50.8318 76.0136 50.7433 76.3023 50.6781C76.6004 50.6036 76.8938 50.5664 77.1825 50.5664C77.8066 50.5664 78.3002 50.6968 78.6635 50.9576C79.0361 51.209 79.3015 51.5397 79.4599 51.9495C79.6275 52.3594 79.7113 52.7971 79.7113 53.2628V56.8954C79.7113 56.9978 79.6694 57.0863 79.5856 57.1608C79.5111 57.226 79.404 57.2586 79.2643 57.2586C79.1525 57.2586 79.05 57.226 78.9569 57.1608C78.8731 57.0863 78.8312 56.9978 78.8312 56.8954V56.2807C78.5983 56.5601 78.3096 56.8116 77.9649 57.0351C77.6203 57.2493 77.2105 57.3564 76.7354 57.3564ZM76.959 56.588C77.2664 56.588 77.5598 56.5088 77.8392 56.3505C78.1186 56.1922 78.3468 56.0012 78.5238 55.7777C78.7101 55.5448 78.8032 55.3259 78.8032 55.121V54.2269H78.2164C77.7973 54.2269 77.3968 54.2548 77.0149 54.3107C76.6423 54.3573 76.3349 54.4644 76.0928 54.632C75.8599 54.7997 75.7435 55.0651 75.7435 55.4284C75.7435 55.8289 75.8599 56.1223 76.0928 56.3086C76.3349 56.4949 76.6237 56.588 76.959 56.588Z" fill="#95C438"/>
<path d="M84.8482 57.2586C84.7271 57.2586 84.62 57.2307 84.5269 57.1748C84.4337 57.1096 84.3872 57.0165 84.3872 56.8954V47.3949C84.3872 47.2738 84.4337 47.1853 84.5269 47.1294C84.62 47.0735 84.7271 47.0456 84.8482 47.0456C84.96 47.0456 85.0625 47.0735 85.1556 47.1294C85.2581 47.1853 85.3093 47.2738 85.3093 47.3949V51.5583H89.347V47.3949C89.347 47.2738 89.3936 47.1853 89.4867 47.1294C89.5799 47.0735 89.687 47.0456 89.8081 47.0456C89.9198 47.0456 90.0223 47.0735 90.1154 47.1294C90.2179 47.1853 90.2691 47.2738 90.2691 47.3949V56.8954C90.2691 57.0165 90.2179 57.1096 90.1154 57.1748C90.0223 57.2307 89.9198 57.2586 89.8081 57.2586C89.687 57.2586 89.5799 57.2307 89.4867 57.1748C89.3936 57.1096 89.347 57.0165 89.347 56.8954V52.3687H85.3093V56.8954C85.3093 57.0165 85.2581 57.1096 85.1556 57.1748C85.0625 57.2307 84.96 57.2586 84.8482 57.2586Z" fill="#95C438"/>
<path d="M94.9123 57.3564C94.3255 57.3564 93.8039 57.2447 93.3475 57.0211C92.9004 56.7976 92.5465 56.4902 92.2857 56.099C92.0342 55.6985 91.9085 55.2328 91.9085 54.7019V53.1511C91.9085 52.6854 92.0295 52.2569 92.2717 51.8657C92.5139 51.4652 92.8352 51.1485 93.2357 50.9156C93.6456 50.6828 94.0926 50.5664 94.577 50.5664C95.0427 50.5664 95.4712 50.6781 95.8623 50.9017C96.2629 51.1159 96.5842 51.414 96.8264 51.7958C97.0685 52.1777 97.1896 52.6202 97.1896 53.1231C97.1896 53.4771 97.1291 53.7332 97.008 53.8916C96.8869 54.0499 96.7332 54.1477 96.5469 54.1849C96.37 54.2129 96.179 54.2269 95.9741 54.2269H92.8166V54.7438C92.8166 55.3027 93.0168 55.7451 93.4174 56.0711C93.8179 56.3971 94.3255 56.5601 94.9402 56.5601C95.3128 56.5601 95.6015 56.5135 95.8065 56.4204C96.0114 56.3272 96.1697 56.2341 96.2815 56.1409C96.4026 56.0478 96.5143 56.0012 96.6168 56.0012C96.6913 56.0012 96.7565 56.0292 96.8124 56.0851C96.8776 56.1316 96.9242 56.1875 96.9521 56.2527C96.9894 56.3179 97.008 56.3785 97.008 56.4343C97.008 56.5368 96.9242 56.6625 96.7565 56.8116C96.5889 56.9606 96.3467 57.091 96.03 57.2028C95.7133 57.3052 95.3408 57.3564 94.9123 57.3564ZM92.8166 53.5562H95.6109C95.8903 53.5562 96.0766 53.5283 96.1697 53.4724C96.2629 53.4072 96.3094 53.2768 96.3094 53.0812C96.3094 52.7832 96.2349 52.5037 96.0859 52.2429C95.9369 51.9728 95.732 51.7539 95.4712 51.5863C95.2104 51.4093 94.9076 51.3208 94.563 51.3208C94.2463 51.3208 93.9529 51.4 93.6828 51.5583C93.422 51.7167 93.2124 51.9216 93.0541 52.1731C92.8958 52.4246 92.8166 52.7086 92.8166 53.0253V53.5562Z" fill="#95C438"/>
<path d="M100.012 57.3564C99.481 57.3564 99.0293 57.2074 98.6567 56.9094C98.2935 56.602 98.1118 56.1363 98.1118 55.5122C98.1118 54.9999 98.2469 54.6087 98.517 54.3386C98.7964 54.0592 99.1783 53.8683 99.6627 53.7658C100.156 53.654 100.724 53.5981 101.367 53.5981H102.08V53.2768C102.08 52.9694 102.024 52.6714 101.912 52.3826C101.81 52.0846 101.637 51.8424 101.395 51.6561C101.162 51.4605 100.841 51.3627 100.431 51.3627C100.124 51.3627 99.8722 51.3953 99.6766 51.4605C99.481 51.5257 99.3274 51.5956 99.2156 51.6701C99.1038 51.7353 99.0107 51.7679 98.9362 51.7679C98.8244 51.7679 98.7312 51.712 98.6567 51.6002C98.5915 51.4885 98.5589 51.386 98.5589 51.2929C98.5589 51.1625 98.6567 51.046 98.8523 50.9436C99.0479 50.8318 99.2901 50.7433 99.5788 50.6781C99.8769 50.6036 100.17 50.5664 100.459 50.5664C101.083 50.5664 101.577 50.6968 101.94 50.9576C102.313 51.209 102.578 51.5397 102.736 51.9495C102.904 52.3594 102.988 52.7971 102.988 53.2628V56.8954C102.988 56.9978 102.946 57.0863 102.862 57.1608C102.788 57.226 102.68 57.2586 102.541 57.2586C102.429 57.2586 102.327 57.226 102.233 57.1608C102.15 57.0863 102.108 56.9978 102.108 56.8954V56.2807C101.875 56.5601 101.586 56.8116 101.241 57.0351C100.897 57.2493 100.487 57.3564 100.012 57.3564ZM100.235 56.588C100.543 56.588 100.836 56.5088 101.116 56.3505C101.395 56.1922 101.623 56.0012 101.8 55.7777C101.987 55.5448 102.08 55.3259 102.08 55.121V54.2269H101.493C101.074 54.2269 100.673 54.2548 100.291 54.3107C99.9188 54.3573 99.6114 54.4644 99.3693 54.632C99.1364 54.7997 99.02 55.0651 99.02 55.4284C99.02 55.8289 99.1364 56.1223 99.3693 56.3086C99.6114 56.4949 99.9002 56.588 100.235 56.588Z" fill="#95C438"/>
<path d="M105.244 57.2586C105.123 57.2586 105.016 57.2214 104.923 57.1469C104.839 57.0724 104.797 56.9885 104.797 56.8954V46.9478C104.797 46.836 104.839 46.7522 104.923 46.6963C105.016 46.6311 105.123 46.5985 105.244 46.5985C105.374 46.5985 105.481 46.6311 105.565 46.6963C105.658 46.7522 105.705 46.836 105.705 46.9478V56.8954C105.705 56.9885 105.658 57.0724 105.565 57.1469C105.481 57.2214 105.374 57.2586 105.244 57.2586Z" fill="#95C438"/>
<path d="M109.771 57.2586C109.054 57.2586 108.504 57.0956 108.122 56.7697C107.74 56.4437 107.549 55.9221 107.549 55.2049V47.8559C107.549 47.7441 107.596 47.6603 107.689 47.6044C107.791 47.5392 107.894 47.5066 107.996 47.5066C108.117 47.5066 108.225 47.5392 108.318 47.6044C108.411 47.6603 108.457 47.7441 108.457 47.8559V50.6502H110.274C110.367 50.6502 110.441 50.6874 110.497 50.762C110.553 50.8365 110.581 50.925 110.581 51.0274C110.581 51.1299 110.553 51.2184 110.497 51.2929C110.441 51.3674 110.367 51.4046 110.274 51.4046H108.457V55.2049C108.457 55.6613 108.555 55.9826 108.751 56.1689C108.946 56.3459 109.286 56.4343 109.771 56.4343H110.162C110.292 56.4343 110.39 56.4762 110.455 56.5601C110.53 56.6346 110.567 56.7277 110.567 56.8395C110.567 56.9513 110.53 57.0491 110.455 57.1329C110.39 57.2167 110.292 57.2586 110.162 57.2586H109.771Z" fill="#95C438"/>
<path d="M112.159 57.2586C112.038 57.2586 111.931 57.2214 111.837 57.1469C111.754 57.0724 111.712 56.9885 111.712 56.8954V46.9478C111.712 46.836 111.754 46.7522 111.837 46.6963C111.931 46.6311 112.038 46.5985 112.159 46.5985C112.289 46.5985 112.396 46.6311 112.48 46.6963C112.573 46.7522 112.62 46.836 112.62 46.9478V51.6282C112.778 51.3581 113.011 51.1159 113.318 50.9017C113.626 50.6781 114.008 50.5664 114.464 50.5664C114.911 50.5664 115.321 50.6874 115.693 50.9296C116.075 51.1625 116.378 51.4792 116.602 51.8797C116.825 52.2709 116.937 52.7086 116.937 53.193V56.8954C116.937 57.0165 116.89 57.1096 116.797 57.1748C116.704 57.2307 116.597 57.2586 116.476 57.2586C116.373 57.2586 116.271 57.2307 116.169 57.1748C116.075 57.1096 116.029 57.0165 116.029 56.8954V53.193C116.029 52.8856 115.95 52.5969 115.791 52.3268C115.633 52.0566 115.423 51.8378 115.163 51.6701C114.902 51.4931 114.613 51.4046 114.296 51.4046C114.017 51.4046 113.747 51.4792 113.486 51.6282C113.235 51.7679 113.025 51.9682 112.857 52.229C112.699 52.4898 112.62 52.8111 112.62 53.193V56.8954C112.62 56.9885 112.573 57.0724 112.48 57.1469C112.396 57.2214 112.289 57.2586 112.159 57.2586Z" fill="#95C438"/>
<path d="M118.282 60.5C118.161 60.5 118.059 60.4674 117.975 60.4022C117.891 60.3463 117.849 60.2439 117.849 60.0948C117.849 59.9831 117.872 59.8853 117.919 59.8014C117.965 59.7176 118.04 59.6757 118.142 59.6757C118.366 59.6757 118.58 59.6058 118.785 59.4661C118.99 59.3264 119.181 59.1261 119.358 58.8654C119.535 58.6139 119.693 58.3251 119.833 57.9991C119.973 57.6824 120.084 57.3425 120.168 56.9792L117.877 51.1392C117.858 51.0833 117.849 51.0367 117.849 50.9995C117.849 50.9157 117.877 50.8458 117.933 50.7899C117.998 50.7247 118.073 50.6735 118.156 50.6362C118.25 50.5897 118.333 50.5664 118.408 50.5664C118.482 50.5664 118.548 50.585 118.603 50.6222C118.669 50.6502 118.711 50.6968 118.729 50.762L120.643 55.9034L122.446 50.762C122.474 50.6968 122.515 50.6502 122.571 50.6222C122.627 50.585 122.688 50.5664 122.753 50.5664C122.827 50.5664 122.907 50.585 122.99 50.6222C123.084 50.6595 123.158 50.7107 123.214 50.7759C123.279 50.8411 123.312 50.9203 123.312 51.0134C123.312 51.06 123.302 51.1019 123.284 51.1392L121.118 56.9932C120.979 57.3658 120.83 57.757 120.671 58.1668C120.513 58.5766 120.327 58.9538 120.112 59.2985C119.907 59.6524 119.656 59.9412 119.358 60.1647C119.06 60.3882 118.701 60.5 118.282 60.5Z" fill="#95C438"/>
<path d="M127.798 57.2586C127.696 57.2586 127.598 57.2307 127.505 57.1748C127.421 57.1096 127.379 57.0165 127.379 56.8954V47.3949C127.379 47.2738 127.426 47.1853 127.519 47.1294C127.612 47.0735 127.719 47.0456 127.84 47.0456C127.952 47.0456 128.054 47.0735 128.148 47.1294C128.25 47.1853 128.301 47.2738 128.301 47.3949V56.4064H132.283C132.395 56.4064 132.474 56.453 132.521 56.5461C132.567 56.6299 132.59 56.7231 132.59 56.8255C132.59 56.9373 132.567 57.0398 132.521 57.1329C132.474 57.2167 132.395 57.2586 132.283 57.2586H127.798Z" fill="#95C438"/>
<path d="M134.098 48.6942C133.93 48.6942 133.781 48.6383 133.651 48.5265C133.53 48.4055 133.469 48.2657 133.469 48.1074C133.469 47.9491 133.53 47.814 133.651 47.7022C133.781 47.5905 133.93 47.5346 134.098 47.5346C134.266 47.5346 134.41 47.5905 134.531 47.7022C134.652 47.814 134.713 47.9491 134.713 48.1074C134.713 48.2657 134.652 48.4055 134.531 48.5265C134.41 48.6383 134.266 48.6942 134.098 48.6942ZM134.084 57.2586C133.963 57.2586 133.856 57.2214 133.763 57.1469C133.679 57.0724 133.637 56.9885 133.637 56.8954V50.9995C133.637 50.8877 133.679 50.8039 133.763 50.748C133.856 50.6828 133.963 50.6502 134.084 50.6502C134.215 50.6502 134.322 50.6828 134.406 50.748C134.499 50.8039 134.545 50.8877 134.545 50.9995V56.8954C134.545 56.9885 134.499 57.0724 134.406 57.1469C134.322 57.2214 134.215 57.2586 134.084 57.2586Z" fill="#95C438"/>
<path d="M136.731 57.2586C136.61 57.2586 136.508 57.226 136.424 57.1608C136.34 57.0956 136.298 57.0118 136.298 56.9094V49.1692C136.298 48.6942 136.41 48.2657 136.633 47.8839C136.866 47.4927 137.169 47.1806 137.541 46.9478C137.923 46.7149 138.338 46.5985 138.785 46.5985H139.134C139.265 46.5985 139.362 46.6404 139.428 46.7242C139.493 46.8081 139.525 46.9059 139.525 47.0176C139.525 47.1201 139.493 47.2132 139.428 47.2971C139.362 47.3809 139.265 47.4228 139.134 47.4228H138.897C138.58 47.4228 138.291 47.502 138.03 47.6603C137.779 47.8187 137.579 48.0236 137.43 48.2751C137.29 48.5265 137.215 48.806 137.206 49.1133V50.6502H139.204C139.306 50.6502 139.386 50.6874 139.442 50.762C139.497 50.8365 139.525 50.925 139.525 51.0274C139.525 51.1206 139.497 51.209 139.442 51.2929C139.386 51.3674 139.306 51.4046 139.204 51.4046H137.206V56.9094C137.206 57.0118 137.16 57.0956 137.066 57.1608C136.973 57.226 136.861 57.2586 136.731 57.2586Z" fill="#95C438"/>
<path d="M143.048 57.3564C142.461 57.3564 141.94 57.2447 141.483 57.0211C141.036 56.7976 140.682 56.4902 140.421 56.099C140.17 55.6985 140.044 55.2328 140.044 54.7019V53.1511C140.044 52.6854 140.165 52.2569 140.407 51.8657C140.65 51.4652 140.971 51.1485 141.371 50.9156C141.781 50.6828 142.228 50.5664 142.713 50.5664C143.178 50.5664 143.607 50.6781 143.998 50.9017C144.399 51.1159 144.72 51.414 144.962 51.7958C145.204 52.1777 145.325 52.6202 145.325 53.1231C145.325 53.4771 145.265 53.7332 145.144 53.8916C145.023 54.0499 144.869 54.1477 144.683 54.1849C144.506 54.2129 144.315 54.2269 144.11 54.2269H140.952V54.7438C140.952 55.3027 141.153 55.7451 141.553 56.0711C141.954 56.3971 142.461 56.5601 143.076 56.5601C143.449 56.5601 143.737 56.5135 143.942 56.4204C144.147 56.3272 144.305 56.2341 144.417 56.1409C144.538 56.0478 144.65 56.0012 144.752 56.0012C144.827 56.0012 144.892 56.0292 144.948 56.0851C145.013 56.1316 145.06 56.1875 145.088 56.2527C145.125 56.3179 145.144 56.3785 145.144 56.4343C145.144 56.5368 145.06 56.6625 144.892 56.8116C144.725 56.9606 144.482 57.091 144.166 57.2028C143.849 57.3052 143.476 57.3564 143.048 57.3564ZM140.952 53.5562H143.747C144.026 53.5562 144.212 53.5283 144.305 53.4724C144.399 53.4072 144.445 53.2768 144.445 53.0812C144.445 52.7832 144.371 52.5037 144.222 52.2429C144.073 51.9728 143.868 51.7539 143.607 51.5863C143.346 51.4093 143.043 51.3208 142.699 51.3208C142.382 51.3208 142.089 51.4 141.819 51.5583C141.558 51.7167 141.348 51.9216 141.19 52.1731C141.031 52.4246 140.952 52.7086 140.952 53.0253V53.5562Z" fill="#95C438"/>
</svg>
